<svg xmlns="http://www.w3.org/2000/svg" width="16" height="16" viewBox="0 0 500 500">
    <path fill="#AFB1B3" transform="scale(1) translate(-135 20)" d="M248.945,200.853c7.111-9.956,9.956-19.911,9.956-28.444c0-8.533-2.844-17.067-8.533-22.756
	c-5.689-5.689-14.222-9.956-22.756-9.956c-17.067,0-34.133,12.8-49.778,36.978l-49.778-28.444
	c12.8-19.911,27.022-35.556,42.667-45.511s35.556-15.644,58.311-15.644s44.089,7.111,62.578,22.756
	c18.489,15.644,27.022,35.556,27.022,61.156c0,14.222-4.267,28.444-11.378,41.244c-7.111,12.8-19.911,29.867-39.822,49.778
	l-49.778,51.2h109.511v55.467H132.323v-45.511l81.067-82.489C230.456,223.609,241.834,210.809,248.945,200.853z"/>
    <path fill="#AFB1B3" transform="scale(1) translate(165 30)" d="M145.227,141.12V88.498h167.822v42.667l-56.889,64c21.333,4.267,38.4,12.8,51.2,28.444
	c11.378,14.222,18.489,31.289,18.489,51.2c0,28.444-9.956,51.2-29.867,68.267s-44.089,24.178-75.378,24.178
	c-29.867,0-61.156-11.378-92.444-32.711l25.6-48.356c25.6,18.489,49.778,27.022,69.689,27.022c12.8,0,22.756-2.844,29.867-8.533
	c8.533-5.689,11.378-14.222,11.378-25.6s-4.267-19.911-14.222-27.022c-8.533-7.111-21.333-9.956-38.4-9.956
	c-8.533,0-21.333,2.844-36.978,7.111v-45.511l52.622-62.578L145.227,141.12L145.227,141.12z"/>
</svg>
