<!--<svg viewBox="0 0 100 100" version="1.1" xmlns="http://www.w3.org/2000/svg">-->
<!--    <g stroke="none" stroke-width="1" fill="#6E6E6E" stroke-linejoin="round">-->
<!--        <path d="M95.063447,8.94270835 L95.063447,86.7792747 L60.1711267,86.7792734 C54.3194659,86.7792734 49.5757576,91.5157844 49.5757576,97.3834886 L49.5757576,90.7303866 L49.5757576,89.278955 C49.5757576,83.9098172 53.916403,79.5757576 59.2708605,79.5757576 L88.3636364,79.5757576 L88.3636364,8.94270834 L95.063447,8.94270835 Z" id="Layer-1" stroke="#222F3E" stroke-width="4"></path>-->
<!--        <path d="M49.5757576,11.6938381 C49.5757576,6.34965654 53.9131173,2 59.2635217,2 L88.3636364,2 L88.3636364,79.5757576 L59.2708605,79.5757576 C53.916403,79.5757576 49.5757576,83.9098172 49.5757576,89.278955 L49.5757576,90.7303866 L49.5757576,11.6938381 Z" id="Layer-2" stroke="#222F3E" stroke-width="4"></path>-->
<!--        <path d="M4.08806818,8.94270835 L4.08806818,86.7792747 L38.9803885,86.7792734 C44.8320493,86.7792734 49.5757576,91.5157844 49.5757576,97.3834886 L49.5757576,90.7303866 L49.5757576,89.278955 C49.5757576,83.9098172 45.2351121,79.5757576 39.8806546,79.5757576 L10.7878788,79.5757576 L10.7878788,8.94270834 L4.08806818,8.94270835 L4.08806818,8.94270835 Z" id="Layer-3" stroke="#222F3E" stroke-width="4"></path>-->
<!--        <path d="M49.5757576,11.6938381 C49.5757576,6.34965654 45.2383978,2 39.8879934,2 L10.7878788,2 L10.7878788,79.5757576 L39.8806546,79.5757576 C45.2351121,79.5757576 49.5757576,83.9098172 49.5757576,89.278955 L49.5757576,90.7303866 L49.5757576,11.6938381 L49.5757576,11.6938381 Z" id="Layer-4" stroke="#222F3E" stroke-width="4"></path>-->
<!--    </g>-->
<!--    <path style="fill:#FFFFFF;" transform="scale(0.14) translate(-30 50)" d="M172.249,89.92h110.933v274.489h-58.311V142.542h-52.622L172.249,89.92L172.249,89.92z"/>-->
<!--    <path style="fill:#FFFFFF;" transform="scale(0.14) translate(270 45.75)" d="M248.945,200.853c7.111-9.956,9.956-19.911,9.956-28.444c0-8.533-2.844-17.067-8.533-22.756-->
<!--	c-5.689-5.689-14.222-9.956-22.756-9.956c-17.067,0-34.133,12.8-49.778,36.978l-49.778-28.444-->
<!--	c12.8-19.911,27.022-35.556,42.667-45.511s35.556-15.644,58.311-15.644s44.089,7.111,62.578,22.756-->
<!--	c18.489,15.644,27.022,35.556,27.022,61.156c0,14.222-4.267,28.444-11.378,41.244c-7.111,12.8-19.911,29.867-39.822,49.778-->
<!--	l-49.778,51.2h109.511v55.467H132.323v-45.511l81.067-82.489C230.456,223.609,241.834,210.809,248.945,200.853z"/>-->
<!--</svg>-->
<svg xmlns="http://www.w3.org/2000/svg" width="16" height="16" viewBox="0 0 500 500">
<!--    <path fill="#6E6E6E" transform="scale(0.4 1) translate(140 -10)" d="M509.06,39.115c-1.718-1.714-3.901-2.568-6.57-2.568h-54.816c-2.662,0-4.853,0.854-6.567,2.568-->
<!--			c-1.714,1.709-2.569,3.899-2.569,6.563v420.268c0,2.665,0.855,4.855,2.569,6.563c1.715,1.718,3.905,2.57,6.567,2.57h54.816-->
<!--			c2.669,0,4.853-0.853,6.57-2.57c1.711-1.708,2.566-3.898,2.566-6.563V45.679C511.626,43.015,510.771,40.825,509.06,39.115z"/>-->
    <path fill="#6E6E6E" transform="scale(1) translate(-140 24)" d="M172.249,89.92h110.933v274.489h-58.311V142.542h-52.622L172.249,89.92L172.249,89.92z"/>
    <path fill="#6E6E6E" transform="scale(1) translate(165 20)" d="M248.945,200.853c7.111-9.956,9.956-19.911,9.956-28.444c0-8.533-2.844-17.067-8.533-22.756
	c-5.689-5.689-14.222-9.956-22.756-9.956c-17.067,0-34.133,12.8-49.778,36.978l-49.778-28.444
	c12.8-19.911,27.022-35.556,42.667-45.511s35.556-15.644,58.311-15.644s44.089,7.111,62.578,22.756
	c18.489,15.644,27.022,35.556,27.022,61.156c0,14.222-4.267,28.444-11.378,41.244c-7.111,12.8-19.911,29.867-39.822,49.778
	l-49.778,51.2h109.511v55.467H132.323v-45.511l81.067-82.489C230.456,223.609,241.834,210.809,248.945,200.853z"/>
</svg>
