<svg xmlns="http://www.w3.org/2000/svg" width="16" height="16" viewBox="0 0 500 500">
    <path fill="#AFB1B3" transform="scale(1) translate(-140 24)" d="M172.249,89.92h110.933v274.489h-58.311V142.542h-52.622L172.249,89.92L172.249,89.92z"/>
    <path fill="#AFB1B3" transform="scale(1) translate(165 20)" d="M248.945,200.853c7.111-9.956,9.956-19.911,9.956-28.444c0-8.533-2.844-17.067-8.533-22.756
	c-5.689-5.689-14.222-9.956-22.756-9.956c-17.067,0-34.133,12.8-49.778,36.978l-49.778-28.444
	c12.8-19.911,27.022-35.556,42.667-45.511s35.556-15.644,58.311-15.644s44.089,7.111,62.578,22.756
	c18.489,15.644,27.022,35.556,27.022,61.156c0,14.222-4.267,28.444-11.378,41.244c-7.111,12.8-19.911,29.867-39.822,49.778
	l-49.778,51.2h109.511v55.467H132.323v-45.511l81.067-82.489C230.456,223.609,241.834,210.809,248.945,200.853z"/>
</svg>
