<!-- Generated by IcoMoon.io -->
<svg version="1.1" xmlns="http://www.w3.org/2000/svg" width="16" height="16" viewBox="6 0 16 28">
<title>file-pdf-o</title>
<path fill="#e24c3e" d="M22.937 5.938c0.578 0.578 1.062 1.734 1.062 2.562v18c0 0.828-0.672 1.5-1.5 1.5h-21c-0.828 0-1.5-0.672-1.5-1.5v-25c0-0.828 0.672-1.5 1.5-1.5h14c0.828 0 1.984 0.484 2.562 1.062zM16 2.125v5.875h5.875c-0.094-0.266-0.234-0.531-0.344-0.641l-4.891-4.891c-0.109-0.109-0.375-0.25-0.641-0.344zM22 26v-16h-6.5c-0.828 0-1.5-0.672-1.5-1.5v-6.5h-12v24h20zM13.969 16.734c0.391 0.313 0.828 0.594 1.312 0.875 0.656-0.078 1.266-0.109 1.828-0.109 1.047 0 2.375 0.125 2.766 0.766 0.109 0.156 0.203 0.438 0.031 0.812-0.016 0.016-0.031 0.047-0.047 0.063v0.016c-0.047 0.281-0.281 0.594-1.109 0.594-1 0-2.516-0.453-3.828-1.141-2.172 0.234-4.453 0.719-6.125 1.297-1.609 2.75-2.844 4.094-3.781 4.094-0.156 0-0.297-0.031-0.438-0.109l-0.375-0.187c-0.047-0.016-0.063-0.047-0.094-0.078-0.078-0.078-0.141-0.25-0.094-0.562 0.156-0.719 1-1.922 2.938-2.938 0.125-0.078 0.281-0.031 0.359 0.094 0.016 0.016 0.031 0.047 0.031 0.063 0.484-0.797 1.047-1.813 1.672-3.078 0.703-1.406 1.25-2.781 1.625-4.094-0.5-1.703-0.656-3.453-0.375-4.484 0.109-0.391 0.344-0.625 0.656-0.625h0.344c0.234 0 0.422 0.078 0.547 0.234 0.187 0.219 0.234 0.562 0.141 1.062-0.016 0.047-0.031 0.094-0.063 0.125 0.016 0.047 0.016 0.078 0.016 0.125v0.469c-0.016 0.984-0.031 1.922-0.219 3 0.547 1.641 1.359 2.969 2.281 3.719zM4.969 23.156c0.469-0.219 1.141-0.891 2.141-2.469-1.172 0.906-1.906 1.937-2.141 2.469zM11.188 8.781c-0.156 0.438-0.156 1.188-0.031 2.063 0.047-0.25 0.078-0.484 0.109-0.688 0.031-0.266 0.078-0.484 0.109-0.672 0.016-0.047 0.031-0.078 0.063-0.125-0.016-0.016-0.016-0.047-0.031-0.078-0.016-0.281-0.109-0.453-0.203-0.562 0 0.031-0.016 0.047-0.016 0.063zM9.25 19.109c1.375-0.547 2.906-0.984 4.438-1.266-0.156-0.125-0.313-0.234-0.453-0.359-0.766-0.672-1.453-1.609-1.984-2.75-0.297 0.953-0.734 1.969-1.297 3.078-0.234 0.438-0.469 0.875-0.703 1.297zM19.344 18.859c-0.078-0.078-0.484-0.375-2.188-0.375 0.766 0.281 1.469 0.438 1.937 0.438 0.141 0 0.219 0 0.281-0.016 0-0.016-0.016-0.031-0.031-0.047z"></path>
</svg>
